<?xml version="1.0" encoding="utf-8"?>
<!-- Generator: Adobe Illustrator 16.0.0, SVG Export Plug-In . SVG Version: 6.00 Build 0)  -->
<!DOCTYPE svg PUBLIC "-//W3C//DTD SVG 1.1//EN" "http://www.w3.org/Graphics/SVG/1.1/DTD/svg11.dtd">
<svg version="1.1" id="Layer_1" xmlns="http://www.w3.org/2000/svg" xmlns:xlink="http://www.w3.org/1999/xlink" x="0px" y="0px"
	 width="255.004px" height="270.443px" viewBox="0 0 255.004 270.443" enable-background="new 0 0 255.004 270.443"
	 xml:space="preserve">
<g>
	<path fill="#E23237" d="M0,44.825L125.809,0l129.195,44.028l-20.918,166.451l-108.277,59.965L19.225,211.275L0,44.825z"/>
	<path fill="#B52E31" d="M255.004,44.028L125.809,0v270.443l108.277-59.865L255.004,44.028L255.004,44.028z"/>
	<path fill="#FFFFFF" d="M126.008,31.577L126.008,31.577L47.614,205.996l29.285-0.499l15.739-39.347h33.469h0.1h36.756
		l17.233,39.846l27.99,0.498L126.008,31.577L126.008,31.577z M126.207,87.458l26.496,55.383h-25.4h-1.295h-23.11L126.207,87.458
		L126.207,87.458z"/>
</g>
</svg>
