<?xml version="1.0" encoding="UTF-8"?>
<!-- Generator: Adobe Illustrator 19.2.1, SVG Export Plug-In . SVG Version: 6.00 Build 0)  -->
<svg version="1.1" id="Layer_1" xmlns="http://www.w3.org/2000/svg" xmlns:xlink="http://www.w3.org/1999/xlink" x="0px" y="0px" viewBox="0 0 633.7 157.7" style="enable-background:new 0 0 633.7 157.7;" xml:space="preserve">
<style type="text/css">
	.st0{fill:#178CD3;}
	.st1{fill:#68BD45;}
	.st2{fill:#939598;}
</style>
<g>
	<g>
		<path class="st0" d="M68.7,56.8l7.2,16.5c2.4-3.6,4.5-7.3,6.2-11.2c0.9-1.8,1.6-3.6,2.3-5.4L68.7,56.8z"/>
		<path class="st0" d="M89.8,11.5l-0.1-1.3l-1.2-0.6c-0.5-0.2-13-6.1-40.3-6.1H48C20.7,3.5,8.2,9.4,7.7,9.6l-1.2,0.6l-0.1,1.3    c0,0.6-0.8,15.6,0.2,22.9l0.2,1.3c0.6,4.7,1.8,14.6,7.3,26.4c6.8,14.6,17.8,27.3,32.7,37.7l1.3,0.9l1.3-0.9    c7.6-5.3,14.2-11.2,19.7-17.6l-9.3-21.3L48.2,72.2l-0.1-54.6l37,37c2.9-8.4,3.8-15.2,4.2-18.9l0.2-1.3    C90.5,27.1,89.8,12.1,89.8,11.5z"/>
	</g>
	<g>
		<path class="st0" d="M140.3,37.9c-1-1.2-2.3-2.2-4-2.8c-1.7-0.6-3.3-0.9-4.8-0.9c-0.9,0-1.8,0.1-2.7,0.3c-0.9,0.2-1.8,0.5-2.6,1    c-0.8,0.4-1.5,1-2,1.8c-0.5,0.7-0.8,1.6-0.8,2.6c0,1.7,0.6,2.9,1.9,3.8c1.2,0.9,2.8,1.6,4.7,2.3c1.9,0.6,3.9,1.2,6.1,1.9    c2.2,0.6,4.2,1.5,6.1,2.6c1.9,1.1,3.5,2.7,4.7,4.6c1.2,1.9,1.9,4.5,1.9,7.7c0,3.1-0.6,5.7-1.7,8c-1.1,2.3-2.7,4.2-4.6,5.7    c-1.9,1.5-4.2,2.6-6.8,3.4c-2.6,0.7-5.3,1.1-8.1,1.1c-3.6,0-6.9-0.5-10-1.6c-3.1-1.1-5.9-2.9-8.6-5.3l8.7-9.5    c1.2,1.7,2.8,2.9,4.7,3.9c1.9,0.9,3.9,1.4,5.9,1.4c1,0,2-0.1,3-0.4c1-0.2,1.9-0.6,2.7-1.1c0.8-0.5,1.5-1.1,1.9-1.8    c0.5-0.7,0.7-1.6,0.7-2.6c0-1.7-0.6-3-1.9-3.9c-1.3-1-2.9-1.8-4.8-2.5c-1.9-0.7-4-1.4-6.2-2c-2.2-0.7-4.3-1.6-6.2-2.7    c-1.9-1.1-3.5-2.6-4.8-4.5c-1.3-1.9-1.9-4.3-1.9-7.4c0-3,0.6-5.6,1.8-7.8c1.2-2.2,2.7-4.1,4.7-5.6c1.9-1.5,4.2-2.6,6.7-3.4    c2.5-0.8,5.2-1.1,7.9-1.1c3.1,0,6.1,0.4,9,1.3c2.9,0.9,5.5,2.4,7.9,4.4L140.3,37.9z"/>
		<path class="st0" d="M190.9,38.7c-1.2-1.5-2.7-2.6-4.4-3.4c-1.7-0.8-3.8-1.2-6-1.2c-2.3,0-4.4,0.4-6.4,1.3    c-1.9,0.9-3.6,2.1-5.1,3.7c-1.4,1.6-2.5,3.5-3.4,5.6c-0.8,2.2-1.2,4.5-1.2,7.1c0,2.6,0.4,5,1.2,7.1c0.8,2.2,1.9,4,3.3,5.6    c1.4,1.6,3.1,2.8,4.9,3.7c1.9,0.9,3.9,1.3,6.1,1.3c2.5,0,4.7-0.5,6.6-1.6c1.9-1,3.5-2.5,4.8-4.4l10.1,7.6    c-2.3,3.3-5.3,5.7-8.9,7.2c-3.6,1.6-7.3,2.3-11.1,2.3c-4.3,0-8.3-0.7-11.9-2c-3.6-1.4-6.8-3.3-9.4-5.8c-2.7-2.5-4.7-5.6-6.2-9.2    c-1.5-3.6-2.2-7.6-2.2-12c0-4.4,0.7-8.4,2.2-12c1.5-3.6,3.5-6.6,6.2-9.2c2.6-2.5,5.8-4.5,9.4-5.8c3.6-1.4,7.6-2,11.9-2    c1.6,0,3.2,0.1,4.9,0.4c1.7,0.3,3.4,0.7,5,1.4c1.6,0.6,3.2,1.5,4.7,2.5c1.5,1,2.9,2.3,4.1,3.8L190.9,38.7z"/>
		<path class="st0" d="M207,24.4h12.2v20.6h23.6V24.4h12.2v55.2h-12.2V55.7h-23.6v23.8H207V24.4z"/>
		<path class="st0" d="M307.4,58.3c0,3.3-0.5,6.3-1.5,9c-1,2.8-2.5,5.1-4.4,7.2c-1.9,2-4.4,3.6-7.3,4.8c-2.9,1.1-6.3,1.7-10.1,1.7    c-3.8,0-7.2-0.6-10.1-1.7c-2.9-1.1-5.3-2.7-7.3-4.8c-1.9-2-3.4-4.4-4.4-7.2c-1-2.8-1.5-5.8-1.5-9V24.4H273v33.4    c0,1.7,0.3,3.3,0.8,4.8c0.5,1.5,1.3,2.7,2.3,3.8c1,1.1,2.2,1.9,3.5,2.5c1.4,0.6,2.9,0.9,4.5,0.9c1.6,0,3.1-0.3,4.4-0.9    c1.4-0.6,2.5-1.4,3.5-2.5c1-1.1,1.8-2.3,2.3-3.8c0.5-1.5,0.8-3,0.8-4.8V24.4h12.2V58.3z"/>
		<path class="st0" d="M328.2,35.1h-15.7V24.4h43.6v10.8h-15.7v44.4h-12.2V35.1z"/>
		<path class="st0" d="M360.2,68.3l28-33.2h-27V24.4h41.7v10.8l-27.4,33.2h28.4v11.2h-43.6V68.3z"/>
		<path class="st1" d="M407.3,24.4h12.2v22.9l21.4-22.9h15.9L432.2,50l26.7,29.5h-17l-22.4-26.2v26.2h-12.2V24.4z"/>
		<path class="st1" d="M462.5,24.4h12.2v44h22.5v11.2h-34.7V24.4z"/>
		<path class="st1" d="M502.5,24.4h12.2v55.2h-12.2V24.4z"/>
		<path class="st1" d="M558.4,38.7c-1.2-1.5-2.7-2.6-4.4-3.4c-1.7-0.8-3.8-1.2-6-1.2s-4.4,0.4-6.4,1.3c-1.9,0.9-3.6,2.1-5.1,3.7    c-1.4,1.6-2.5,3.5-3.4,5.6c-0.8,2.2-1.2,4.5-1.2,7.1c0,2.6,0.4,5,1.2,7.1c0.8,2.2,1.9,4,3.3,5.6c1.4,1.6,3.1,2.8,4.9,3.7    c1.9,0.9,3.9,1.3,6.1,1.3c2.5,0,4.7-0.5,6.6-1.6c1.9-1,3.5-2.5,4.8-4.4l10.1,7.6c-2.3,3.3-5.3,5.7-8.9,7.2    c-3.6,1.6-7.3,2.3-11.1,2.3c-4.3,0-8.3-0.7-11.9-2c-3.6-1.4-6.8-3.3-9.4-5.8c-2.6-2.5-4.7-5.6-6.2-9.2c-1.5-3.6-2.2-7.6-2.2-12    c0-4.4,0.7-8.4,2.2-12c1.5-3.6,3.5-6.6,6.2-9.2c2.7-2.5,5.8-4.5,9.4-5.8c3.6-1.4,7.6-2,11.9-2c1.6,0,3.2,0.1,4.9,0.4    c1.7,0.3,3.4,0.7,5,1.4c1.6,0.6,3.2,1.5,4.7,2.5c1.5,1,2.9,2.3,4.1,3.8L558.4,38.7z"/>
		<path class="st1" d="M574.6,24.4h12.2v22.9l21.4-22.9h15.9L599.5,50l26.7,29.5h-17l-22.4-26.2v26.2h-12.2V24.4z"/>
	</g>
</g>
<g>
	<path class="st2" d="M162.8,114.3h2.9l-1.6,11.3h0.1c0.6-0.8,1.5-1.4,2.5-1.9c1-0.5,2.1-0.7,3.2-0.7c1.2,0,2.2,0.2,3.1,0.6   c0.9,0.4,1.6,1,2.2,1.7c0.6,0.7,1,1.6,1.2,2.6c0.2,1,0.3,2,0.1,3.2c-0.2,1.1-0.5,2.2-1,3.2c-0.5,1-1.1,1.8-1.9,2.6   c-0.8,0.7-1.7,1.3-2.7,1.7c-1,0.4-2.1,0.6-3.3,0.6c-1,0-2-0.2-2.9-0.7c-0.9-0.5-1.6-1.1-2.1-1.9h-0.1l-0.3,2.2h-2.9L162.8,114.3z    M167.7,136.4c0.8,0,1.5-0.1,2.1-0.4c0.7-0.3,1.2-0.6,1.7-1.1c0.5-0.5,0.9-1,1.2-1.7c0.3-0.7,0.6-1.4,0.7-2.1   c0.1-0.8,0.1-1.5,0-2.1c-0.1-0.7-0.4-1.2-0.8-1.7c-0.4-0.5-0.9-0.8-1.4-1.1c-0.6-0.3-1.3-0.4-2-0.4c-0.8,0-1.5,0.1-2.1,0.4   c-0.7,0.3-1.2,0.6-1.7,1.1c-0.5,0.5-0.9,1-1.2,1.7c-0.3,0.7-0.5,1.4-0.6,2.1c-0.1,0.8-0.1,1.5,0,2.1c0.1,0.7,0.4,1.2,0.8,1.7   c0.4,0.5,0.8,0.8,1.4,1.1C166.2,136.3,166.9,136.4,167.7,136.4z"/>
	<path class="st2" d="M182.7,123.4h3.4l2.9,12h0.1l6-12h3.1l-9.9,18.6c-0.3,0.7-0.7,1.3-1.1,1.8c-0.4,0.5-0.8,1-1.2,1.4   c-0.4,0.4-1,0.7-1.5,0.9c-0.6,0.2-1.3,0.3-2.1,0.3c-0.4,0-0.9,0-1.3-0.1c-0.4-0.1-0.8-0.2-1.2-0.3l0.7-2.7c0.5,0.2,1.1,0.4,1.7,0.4   c0.5,0,0.8-0.1,1.2-0.2c0.3-0.1,0.6-0.3,0.9-0.5s0.5-0.5,0.7-0.8c0.2-0.3,0.4-0.6,0.6-1l1.3-2.4L182.7,123.4z"/>
	<path class="st2" d="M223.7,127.3c-0.3-0.4-0.7-0.8-1.1-1.1c-0.5-0.3-1.1-0.4-1.8-0.4c-0.7,0-1.3,0.1-1.9,0.4   c-0.5,0.3-0.9,0.7-0.9,1.3c-0.1,0.5,0,0.8,0.3,1.1c0.2,0.3,0.6,0.5,0.9,0.7c0.4,0.2,0.8,0.3,1.2,0.4c0.4,0.1,0.8,0.2,1.1,0.2   c0.6,0.2,1.2,0.3,1.7,0.5c0.5,0.2,1,0.5,1.3,0.8c0.4,0.3,0.6,0.8,0.8,1.3c0.2,0.5,0.2,1.1,0.1,1.8c-0.1,0.9-0.4,1.6-0.9,2.2   c-0.4,0.6-1,1.1-1.6,1.5c-0.6,0.4-1.4,0.7-2.1,0.8s-1.5,0.3-2.3,0.3c-1.3,0-2.4-0.2-3.2-0.6c-0.9-0.4-1.7-1.1-2.3-2.1l2.4-1.8   c0.4,0.5,0.9,0.9,1.4,1.3c0.5,0.4,1.2,0.5,2.1,0.5c0.8,0,1.5-0.2,2.2-0.5c0.7-0.3,1.1-0.8,1.2-1.5c0.1-0.4,0-0.8-0.2-1.1   c-0.2-0.3-0.5-0.5-0.9-0.7c-0.4-0.2-0.7-0.3-1.2-0.4c-0.4-0.1-0.8-0.2-1.1-0.2c-0.6-0.2-1.2-0.3-1.7-0.5c-0.5-0.2-1-0.5-1.4-0.8   c-0.4-0.3-0.7-0.7-0.9-1.2c-0.2-0.5-0.2-1.1-0.1-1.8c0.1-0.8,0.4-1.5,0.8-2.1c0.4-0.6,0.9-1.1,1.5-1.5c0.6-0.4,1.3-0.7,2-0.9   c0.7-0.2,1.5-0.3,2.2-0.3c1,0,2,0.2,2.9,0.6c0.9,0.4,1.6,1,2,1.9L223.7,127.3z"/>
	<path class="st2" d="M233.9,123.4h2.9l-2.1,15.3h-2.9L233.9,123.4z M234,117.9c0.1-0.6,0.4-1.1,0.8-1.5c0.5-0.4,1-0.6,1.6-0.6   c0.6,0,1.1,0.2,1.4,0.6c0.4,0.4,0.5,0.9,0.4,1.5c-0.1,0.6-0.4,1.1-0.8,1.5c-0.5,0.4-1,0.6-1.6,0.6c-0.6,0-1.1-0.2-1.4-0.6   C234.1,119,234,118.5,234,117.9z"/>
	<path class="st2" d="M244.7,123.4h2.7l-0.3,2.4h0.1c0.1-0.2,0.3-0.5,0.6-0.8c0.3-0.3,0.7-0.6,1.2-0.9s1-0.5,1.6-0.7   c0.6-0.2,1.2-0.3,1.9-0.3c2.2,0,3.7,0.9,4.4,2.8c0.6-0.9,1.5-1.7,2.4-2.1c1-0.5,1.9-0.7,2.8-0.7c1.2,0,2.1,0.2,2.8,0.6   c0.7,0.4,1.2,0.9,1.5,1.5c0.3,0.6,0.5,1.4,0.6,2.2c0.1,0.8,0,1.6-0.1,2.5l-1.2,8.9h-2.9l1.2-8.5c0.1-0.6,0.1-1.1,0.1-1.7   c0-0.5-0.1-1-0.3-1.4c-0.2-0.4-0.5-0.7-0.9-1c-0.4-0.2-1-0.4-1.7-0.4c-1.4,0-2.5,0.4-3.2,1.3c-0.7,0.9-1.2,2-1.4,3.3l-1.2,8.4h-2.9   l1.1-8c0.1-0.7,0.2-1.4,0.2-2c0-0.6-0.1-1.1-0.2-1.6c-0.2-0.4-0.4-0.8-0.8-1c-0.4-0.2-0.9-0.4-1.6-0.4c-0.5,0-1,0.1-1.6,0.3   c-0.5,0.2-1,0.5-1.4,0.9c-0.4,0.4-0.8,0.9-1.1,1.6c-0.3,0.6-0.5,1.4-0.6,2.2l-1.1,8h-2.9L244.7,123.4z"/>
	<path class="st2" d="M275.5,123.4h2.9l-0.3,2.2h0.1c0.7-0.8,1.6-1.5,2.6-1.9c1-0.5,2.1-0.7,3.1-0.7c1.2,0,2.2,0.2,3.1,0.6   c0.9,0.4,1.6,1,2.2,1.7c0.6,0.7,1,1.6,1.2,2.6c0.2,1,0.3,2,0.1,3.2c-0.2,1.1-0.5,2.2-1,3.2c-0.5,1-1.1,1.8-1.9,2.6   s-1.7,1.3-2.7,1.7c-1,0.4-2.1,0.6-3.3,0.6c-1.1,0-2.1-0.2-3-0.7c-0.9-0.5-1.6-1.1-2-1.9h-0.1l-1.6,11.3H272L275.5,123.4z    M283.1,125.8c-0.8,0-1.5,0.1-2.1,0.4c-0.7,0.3-1.2,0.6-1.7,1.1c-0.5,0.5-0.9,1-1.2,1.7c-0.3,0.7-0.5,1.4-0.6,2.1   c-0.1,0.8-0.1,1.5,0,2.1c0.1,0.7,0.4,1.2,0.8,1.7s0.8,0.8,1.4,1.1c0.6,0.3,1.3,0.4,2.1,0.4c0.8,0,1.5-0.1,2.1-0.4   c0.7-0.3,1.2-0.6,1.7-1.1c0.5-0.5,0.9-1,1.2-1.7c0.3-0.7,0.6-1.4,0.7-2.1c0.1-0.8,0.1-1.5,0-2.1c-0.1-0.7-0.4-1.2-0.8-1.7   c-0.4-0.5-0.9-0.8-1.4-1.1C284.6,125.9,283.9,125.8,283.1,125.8z"/>
	<path class="st2" d="M300,114.3h2.9l-3.4,24.4h-2.9L300,114.3z"/>
	<path class="st2" d="M310.4,132.2c-0.1,0.7,0,1.3,0.2,1.8c0.2,0.5,0.5,1,1,1.4c0.4,0.4,0.9,0.7,1.5,0.9c0.6,0.2,1.2,0.3,1.9,0.3   c0.9,0,1.7-0.2,2.5-0.6c0.7-0.4,1.4-1,2.1-1.7l1.9,1.7c-1.9,2.1-4.3,3.1-7.2,3.1c-1.2,0-2.3-0.2-3.2-0.6c-0.9-0.4-1.7-1-2.2-1.7   c-0.6-0.7-1-1.6-1.2-2.6c-0.2-1-0.3-2-0.1-3.2c0.2-1.1,0.5-2.2,1-3.2c0.5-1,1.2-1.8,2-2.6c0.8-0.7,1.7-1.3,2.7-1.7   c1-0.4,2.1-0.6,3.2-0.6c1.4,0,2.5,0.2,3.3,0.7c0.9,0.5,1.6,1.1,2.1,1.9c0.5,0.8,0.8,1.6,0.9,2.6c0.1,1,0.1,1.9,0,2.9l-0.2,1H310.4z    M320,129.8c0.1-0.6,0-1.2-0.1-1.8c-0.1-0.5-0.3-1-0.6-1.4s-0.7-0.7-1.2-0.9c-0.5-0.2-1.2-0.3-1.9-0.3c-0.7,0-1.4,0.1-2,0.4   c-0.6,0.3-1.2,0.6-1.7,1.1c-0.5,0.4-0.9,0.9-1.2,1.4c-0.3,0.5-0.5,1.1-0.6,1.6H320z"/>
	<path class="st2" d="M338.2,127.3c-0.3-0.4-0.7-0.8-1.1-1.1c-0.5-0.3-1.1-0.4-1.8-0.4c-0.7,0-1.3,0.1-1.9,0.4   c-0.5,0.3-0.9,0.7-0.9,1.3c-0.1,0.5,0,0.8,0.3,1.1c0.2,0.3,0.6,0.5,0.9,0.7c0.4,0.2,0.8,0.3,1.2,0.4c0.4,0.1,0.8,0.2,1.1,0.2   c0.6,0.2,1.2,0.3,1.7,0.5c0.5,0.2,1,0.5,1.3,0.8c0.4,0.3,0.6,0.8,0.8,1.3c0.2,0.5,0.2,1.1,0.1,1.8c-0.1,0.9-0.4,1.6-0.9,2.2   c-0.4,0.6-1,1.1-1.6,1.5c-0.6,0.4-1.4,0.7-2.1,0.8s-1.5,0.3-2.3,0.3c-1.3,0-2.4-0.2-3.2-0.6c-0.9-0.4-1.7-1.1-2.3-2.1l2.4-1.8   c0.4,0.5,0.9,0.9,1.4,1.3c0.5,0.4,1.2,0.5,2.1,0.5c0.8,0,1.5-0.2,2.2-0.5c0.7-0.3,1.1-0.8,1.2-1.5c0.1-0.4,0-0.8-0.2-1.1   c-0.2-0.3-0.5-0.5-0.9-0.7c-0.4-0.2-0.7-0.3-1.2-0.4c-0.4-0.1-0.8-0.2-1.1-0.2c-0.6-0.2-1.2-0.3-1.7-0.5c-0.5-0.2-1-0.5-1.4-0.8   c-0.4-0.3-0.7-0.7-0.9-1.2c-0.2-0.5-0.2-1.1-0.1-1.8c0.1-0.8,0.4-1.5,0.8-2.1c0.4-0.6,0.9-1.1,1.5-1.5c0.6-0.4,1.3-0.7,2-0.9   c0.7-0.2,1.5-0.3,2.2-0.3c1,0,2,0.2,2.9,0.6c0.9,0.4,1.6,1,2,1.9L338.2,127.3z"/>
	<path class="st2" d="M359.7,138.8h-2.9l0.3-2.4H357c-0.5,0.8-1.2,1.5-2.2,2c-1,0.5-2.1,0.8-3.2,0.8c-0.8,0-1.4-0.1-2.1-0.3   c-0.6-0.2-1.2-0.6-1.6-1c-0.4-0.5-0.8-1.1-1-1.8c-0.2-0.7-0.2-1.6-0.1-2.6l1.4-9.9h2.9l-1.3,9.1c-0.1,0.7-0.1,1.3,0,1.8   c0.1,0.5,0.3,0.9,0.6,1.2c0.3,0.3,0.6,0.5,1,0.7c0.4,0.1,0.8,0.2,1.3,0.2c1.2,0,2.3-0.4,3.2-1.2c0.9-0.8,1.5-2.1,1.8-3.9l1.1-7.9   h2.9L359.7,138.8z"/>
	<path class="st2" d="M369.4,123.4h2.9l-0.3,2.4h0.1c0.5-0.8,1.2-1.5,2.1-2c0.9-0.5,1.9-0.8,2.8-0.8c0.5,0,0.9,0.1,1.3,0.2l-0.6,3.1   c-0.2-0.1-0.5-0.1-0.7-0.2c-0.2,0-0.5-0.1-0.7-0.1c-1.4,0-2.6,0.4-3.4,1.2c-0.9,0.8-1.4,2-1.7,3.7l-1.1,7.7h-2.9L369.4,123.4z"/>
	<path class="st2" d="M384.4,125.3c0.9-0.8,2-1.3,3.1-1.7c1.1-0.4,2.2-0.6,3.3-0.6c1.1,0,2.1,0.1,2.8,0.4c0.8,0.3,1.4,0.7,1.8,1.1   c0.5,0.5,0.8,1,0.9,1.6c0.1,0.6,0.2,1.3,0.1,1.9l-1.1,7.8c-0.1,0.5-0.1,1-0.2,1.5c0,0.5-0.1,0.9-0.1,1.3h-2.6c0-0.4,0-0.8,0.1-1.2   c0-0.4,0.1-0.8,0.1-1.2h-0.1c-0.8,1-1.7,1.7-2.6,2.1s-2,0.6-3.2,0.6c-0.7,0-1.4-0.1-2-0.3c-0.6-0.2-1.1-0.5-1.6-0.9   c-0.4-0.4-0.7-0.9-1-1.4c-0.2-0.6-0.3-1.2-0.1-2c0.1-1,0.5-1.8,1-2.5c0.5-0.7,1.2-1.2,2.1-1.6s1.8-0.7,2.8-0.9   c1-0.2,2.1-0.3,3.3-0.3h2.1l0.1-0.6c0.1-0.4,0-0.8,0-1.2c-0.1-0.4-0.3-0.7-0.5-1.1c-0.3-0.3-0.6-0.6-1-0.7c-0.4-0.2-1-0.3-1.6-0.3   c-0.6,0-1.1,0.1-1.5,0.2c-0.4,0.1-0.8,0.2-1.2,0.4c-0.4,0.2-0.7,0.4-1,0.6c-0.3,0.2-0.6,0.4-0.9,0.6L384.4,125.3z M391.8,131.4   c-0.7,0-1.4,0-2.1,0.1c-0.7,0.1-1.4,0.2-2,0.4c-0.6,0.2-1.2,0.5-1.6,0.9c-0.4,0.4-0.7,0.9-0.8,1.5c-0.1,0.9,0.1,1.5,0.6,1.9   c0.5,0.4,1.3,0.6,2.3,0.6c0.8,0,1.5-0.1,2.1-0.4c0.6-0.3,1.1-0.6,1.5-1c0.4-0.4,0.7-0.9,1-1.4c0.2-0.5,0.4-1,0.4-1.6l0.2-1H391.8z"/>
	<path class="st2" d="M404.6,123.4h2.9l-0.3,2.4h0.1c0.5-0.8,1.2-1.5,2.2-2c1-0.5,2-0.8,3.2-0.8c0.7,0,1.4,0.1,2.1,0.3   c0.6,0.2,1.2,0.6,1.6,1.1c0.4,0.5,0.8,1.1,1,1.8c0.2,0.7,0.2,1.6,0.1,2.6l-1.4,9.9h-2.9l1.3-9.1c0.1-0.7,0.1-1.3,0-1.8   c-0.1-0.5-0.3-0.9-0.6-1.2c-0.3-0.3-0.6-0.5-1-0.7c-0.4-0.1-0.8-0.2-1.3-0.2c-0.6,0-1.2,0.1-1.7,0.3c-0.6,0.2-1,0.5-1.5,0.9   c-0.4,0.4-0.8,1-1.1,1.6c-0.3,0.6-0.5,1.4-0.6,2.3l-1.1,7.9h-2.9L404.6,123.4z"/>
	<path class="st2" d="M436.2,127.5c-0.5-0.6-1-1-1.5-1.3c-0.5-0.3-1.2-0.4-2-0.4c-0.8,0-1.5,0.1-2.1,0.4c-0.6,0.3-1.2,0.7-1.7,1.2   s-0.9,1.1-1.1,1.7c-0.3,0.7-0.5,1.3-0.6,2.1c-0.1,0.7-0.1,1.4,0.1,2c0.1,0.6,0.4,1.2,0.8,1.7c0.4,0.5,0.8,0.8,1.4,1.1   c0.6,0.3,1.2,0.4,2,0.4c0.8,0,1.5-0.1,2.2-0.4s1.2-0.7,1.8-1.3l1.8,2.1c-0.9,0.8-1.8,1.4-2.9,1.8c-1,0.4-2.1,0.5-3.2,0.5   c-1.2,0-2.2-0.2-3.2-0.6c-0.9-0.4-1.7-0.9-2.3-1.6c-0.6-0.7-1-1.5-1.3-2.5c-0.3-1-0.3-2.1-0.1-3.2c0.1-1.2,0.5-2.3,1-3.3   c0.5-1,1.2-1.8,2-2.6c0.8-0.7,1.7-1.3,2.8-1.7c1-0.4,2.2-0.6,3.4-0.6c1.1,0,2.2,0.2,3.1,0.6c1,0.4,1.8,1,2.4,1.8L436.2,127.5z"/>
	<path class="st2" d="M445.6,132.2c-0.1,0.7,0,1.3,0.2,1.8c0.2,0.5,0.5,1,1,1.4c0.4,0.4,0.9,0.7,1.5,0.9c0.6,0.2,1.2,0.3,1.9,0.3   c0.9,0,1.7-0.2,2.5-0.6c0.7-0.4,1.4-1,2.1-1.7l1.9,1.7c-1.9,2.1-4.3,3.1-7.2,3.1c-1.2,0-2.3-0.2-3.2-0.6c-0.9-0.4-1.7-1-2.2-1.7   c-0.6-0.7-1-1.6-1.2-2.6c-0.2-1-0.3-2-0.1-3.2c0.2-1.1,0.5-2.2,1-3.2c0.5-1,1.2-1.8,2-2.6c0.8-0.7,1.7-1.3,2.7-1.7   c1-0.4,2.1-0.6,3.2-0.6c1.4,0,2.5,0.2,3.3,0.7c0.9,0.5,1.6,1.1,2.1,1.9c0.5,0.8,0.8,1.6,0.9,2.6c0.1,1,0.1,1.9,0,2.9l-0.2,1H445.6z    M455.2,129.8c0.1-0.6,0-1.2-0.1-1.8c-0.1-0.5-0.3-1-0.6-1.4c-0.3-0.4-0.7-0.7-1.2-0.9c-0.5-0.2-1.2-0.3-1.9-0.3   c-0.7,0-1.4,0.1-2,0.4c-0.6,0.3-1.2,0.6-1.7,1.1c-0.5,0.4-0.9,0.9-1.2,1.4c-0.3,0.5-0.5,1.1-0.6,1.6H455.2z"/>
	<path class="st2" d="M471.5,132.3h-8l0.4-2.7h8L471.5,132.3z"/>
	<path class="st2" d="M492.6,138.6c-0.2,1.2-0.5,2.2-1.1,3.2c-0.5,1-1.2,1.8-2,2.5c-0.8,0.7-1.8,1.2-2.9,1.6   c-1.1,0.4-2.3,0.6-3.5,0.6c-1.5,0-2.8-0.2-4-0.6c-1.2-0.4-2.2-1.1-3.2-2.1l2.3-2.5c0.6,0.8,1.4,1.4,2.2,1.9   c0.8,0.4,1.8,0.6,2.9,0.6c1.1,0,2-0.2,2.7-0.5c0.8-0.3,1.4-0.7,1.9-1.2c0.5-0.5,0.9-1.1,1.1-1.7c0.3-0.6,0.4-1.3,0.5-1.9l0.3-2.3   h-0.1c-0.7,0.9-1.5,1.6-2.6,2.1c-1,0.4-2,0.7-3.1,0.7c-1.1,0-2.1-0.2-3-0.6s-1.7-0.9-2.2-1.6c-0.6-0.7-1-1.5-1.3-2.5   c-0.3-1-0.3-2-0.1-3.1c0.1-1.1,0.5-2.2,1-3.2c0.5-1,1.1-1.8,1.9-2.6c0.8-0.7,1.7-1.3,2.7-1.7c1-0.4,2.1-0.6,3.3-0.6   c1,0,2,0.2,2.9,0.7c0.9,0.5,1.6,1.1,2.1,1.9h0.1l0.3-2.2h2.9L492.6,138.6z M486.4,125.8c-0.8,0-1.5,0.1-2.1,0.4   c-0.7,0.3-1.2,0.6-1.7,1.1c-0.5,0.5-0.9,1-1.2,1.7c-0.3,0.7-0.5,1.4-0.6,2.1c-0.2,1.6,0,2.8,0.8,3.7c0.8,0.9,1.9,1.4,3.5,1.4   c1.6,0,2.8-0.5,3.9-1.4c1-0.9,1.7-2.2,1.9-3.7c0.1-0.8,0.1-1.5,0-2.1c-0.1-0.7-0.4-1.2-0.8-1.7c-0.4-0.5-0.9-0.8-1.4-1.1   C487.8,125.9,487.2,125.8,486.4,125.8z"/>
	<path class="st2" d="M502.3,123.4h2.9l-0.3,2.4h0.1c0.5-0.8,1.2-1.5,2.1-2c0.9-0.5,1.9-0.8,2.8-0.8c0.5,0,0.9,0.1,1.3,0.2l-0.6,3.1   c-0.2-0.1-0.5-0.1-0.7-0.2c-0.2,0-0.5-0.1-0.7-0.1c-1.4,0-2.6,0.4-3.4,1.2c-0.9,0.8-1.4,2-1.7,3.7l-1.1,7.7h-2.9L502.3,123.4z"/>
	<path class="st2" d="M515.1,131.1c0.1-1.1,0.5-2.2,1.1-3.1c0.6-1,1.3-1.8,2.1-2.6c0.8-0.7,1.8-1.3,2.8-1.7c1-0.4,2.1-0.6,3.3-0.6   s2.2,0.2,3.1,0.6c0.9,0.4,1.7,1,2.3,1.7c0.6,0.7,1.1,1.6,1.4,2.6c0.3,1,0.3,2,0.2,3.1c-0.2,1.1-0.5,2.2-1.1,3.2   c-0.5,1-1.2,1.8-2.1,2.6c-0.8,0.7-1.8,1.3-2.8,1.7c-1,0.4-2.1,0.6-3.3,0.6s-2.2-0.2-3.1-0.6c-0.9-0.4-1.7-1-2.3-1.7   c-0.6-0.7-1.1-1.6-1.4-2.6C515,133.3,514.9,132.2,515.1,131.1z M518.2,131.1c-0.1,0.8-0.1,1.5,0,2.1c0.1,0.7,0.4,1.2,0.8,1.7   c0.4,0.5,0.8,0.8,1.4,1.1c0.6,0.3,1.3,0.4,2.1,0.4c0.8,0,1.5-0.1,2.1-0.4c0.7-0.3,1.2-0.6,1.7-1.1c0.5-0.5,0.9-1,1.2-1.7   c0.3-0.7,0.6-1.4,0.7-2.1c0.1-0.8,0.1-1.5,0-2.1c-0.1-0.7-0.4-1.2-0.8-1.7c-0.4-0.5-0.9-0.8-1.4-1.1c-0.6-0.3-1.3-0.4-2-0.4   c-0.8,0-1.5,0.1-2.1,0.4c-0.7,0.3-1.2,0.6-1.7,1.1c-0.5,0.5-0.9,1-1.2,1.7C518.5,129.6,518.3,130.3,518.2,131.1z"/>
	<path class="st2" d="M550.8,138.8h-2.9l0.3-2.4h-0.1c-0.5,0.8-1.2,1.5-2.2,2c-1,0.5-2.1,0.8-3.2,0.8c-0.8,0-1.4-0.1-2.1-0.3   c-0.6-0.2-1.2-0.6-1.6-1c-0.4-0.5-0.8-1.1-1-1.8c-0.2-0.7-0.2-1.6-0.1-2.6l1.4-9.9h2.9l-1.3,9.1c-0.1,0.7-0.1,1.3,0,1.8   c0.1,0.5,0.3,0.9,0.6,1.2c0.3,0.3,0.6,0.5,1,0.7c0.4,0.1,0.8,0.2,1.3,0.2c1.2,0,2.3-0.4,3.2-1.2c0.9-0.8,1.5-2.1,1.8-3.9l1.1-7.9   h2.9L550.8,138.8z"/>
	<path class="st2" d="M560.5,123.4h2.9l-0.3,2.2h0.1c0.7-0.8,1.6-1.5,2.6-1.9c1-0.5,2.1-0.7,3.1-0.7c1.2,0,2.2,0.2,3.1,0.6   c0.9,0.4,1.6,1,2.2,1.7c0.6,0.7,1,1.6,1.2,2.6c0.2,1,0.3,2,0.1,3.2c-0.2,1.1-0.5,2.2-1,3.2c-0.5,1-1.1,1.8-1.9,2.6   c-0.8,0.7-1.7,1.3-2.7,1.7s-2.1,0.6-3.3,0.6c-1.1,0-2.1-0.2-3-0.7c-0.9-0.5-1.6-1.1-2-1.9h-0.1l-1.6,11.3h-2.9L560.5,123.4z    M568.2,125.8c-0.8,0-1.5,0.1-2.1,0.4c-0.7,0.3-1.2,0.6-1.7,1.1c-0.5,0.5-0.9,1-1.2,1.7c-0.3,0.7-0.5,1.4-0.6,2.1   c-0.1,0.8-0.1,1.5,0,2.1c0.1,0.7,0.4,1.2,0.8,1.7c0.4,0.5,0.8,0.8,1.4,1.1c0.6,0.3,1.3,0.4,2.1,0.4c0.8,0,1.5-0.1,2.1-0.4   c0.7-0.3,1.2-0.6,1.7-1.1c0.5-0.5,0.9-1,1.2-1.7c0.3-0.7,0.6-1.4,0.7-2.1c0.1-0.8,0.1-1.5,0-2.1c-0.1-0.7-0.4-1.2-0.8-1.7   c-0.4-0.5-0.9-0.8-1.4-1.1C569.6,125.9,568.9,125.8,568.2,125.8z"/>
</g>
</svg>